<svg width="150" height="150" viewBox="0 0 512 513" fill="none" xmlns="http://www.w3.org/2000/svg"><rect x="93.807" y="108.86" width="325.297" height="327.126" rx="72.13" fill="url(#a)"/><path d="M254.989 359.731c37.13 0 67.23-30.1 67.23-67.23 0-4.792 3.66-9.026 8.452-9.026h72.961c11.394 0 20.63 9.236 20.63 20.63v87.675c0 24.415-19.792 44.207-44.206 44.207H132.501c-24.415 0-44.207-19.792-44.207-44.207v-87.675c0-11.394 9.237-20.63 20.63-20.63h70.383c4.792 0 8.452 4.234 8.452 9.026 0 37.13 30.1 67.23 67.23 67.23Z" fill="url(#b)"/><path d="M254.989 359.731c37.13 0 67.23-30.1 67.23-67.23 0-4.792 3.66-9.026 8.452-9.026h72.961c11.394 0 20.63 9.236 20.63 20.63v87.675c0 24.415-19.792 44.207-44.206 44.207H132.501c-24.415 0-44.207-19.792-44.207-44.207v-87.675c0-11.394 9.237-20.63 20.63-20.63h70.383c4.792 0 8.452 4.234 8.452 9.026 0 37.13 30.1 67.23 67.23 67.23Z" fill="url(#c)" fill-opacity=".8"/><path d="M254.989 359.731c37.13 0 67.23-30.1 67.23-67.23 0-4.792 3.66-9.026 8.452-9.026h72.961c11.394 0 20.63 9.236 20.63 20.63v87.675c0 24.415-19.792 44.207-44.206 44.207H132.501c-24.415 0-44.207-19.792-44.207-44.207v-87.675c0-11.394 9.237-20.63 20.63-20.63h70.383c4.792 0 8.452 4.234 8.452 9.026 0 37.13 30.1 67.23 67.23 67.23Z" fill="url(#d)"/><path d="M254.989 359.731c37.13 0 67.23-30.1 67.23-67.23 0-4.792 3.66-9.026 8.452-9.026h72.961c11.394 0 20.63 9.236 20.63 20.63v87.675c0 24.415-19.792 44.207-44.206 44.207H132.501c-24.415 0-44.207-19.792-44.207-44.207v-87.675c0-11.394 9.237-20.63 20.63-20.63h70.383c4.792 0 8.452 4.234 8.452 9.026 0 37.13 30.1 67.23 67.23 67.23Z" fill="url(#e)"/><path d="M254.989 359.731c37.13 0 67.23-30.1 67.23-67.23 0-4.792 3.66-9.026 8.452-9.026h72.961c11.394 0 20.63 9.236 20.63 20.63v87.675c0 24.415-19.792 44.207-44.206 44.207H132.501c-24.415 0-44.207-19.792-44.207-44.207v-87.675c0-11.394 9.237-20.63 20.63-20.63h70.383c4.792 0 8.452 4.234 8.452 9.026 0 37.13 30.1 67.23 67.23 67.23Z" fill="url(#f)" fill-opacity=".4"/><defs><linearGradient id="a" x1="399.39" y1="88.156" x2="35.808" y2="635.465" gradientUnits="userSpaceOnUse"><stop offset=".29" stop-color="#E7E7E7"/><stop offset=".628" stop-color="#C9F5FF"/></linearGradient><linearGradient id="b" x1="256.278" y1="283.475" x2="256.278" y2="442.719" gradientUnits="userSpaceOnUse"><stop offset=".099" stop-color="#E7E7E7"/><stop offset=".516" stop-color="#E7E7E7"/><stop offset=".667" stop-color="#D7D7D7"/><stop offset=".818" stop-color="#BCBCBC"/><stop offset=".88" stop-color="#C7C7C7"/><stop offset=".975" stop-color="#F2F2F2"/></linearGradient><linearGradient id="c" x1="223" y1="359.731" x2="81" y2="359.731" gradientUnits="userSpaceOnUse"><stop offset=".835" stop-color="#D7D7D7" stop-opacity="0"/><stop offset=".912" stop-color="#BCBCBC"/><stop offset="1" stop-color="#F2F2F2"/></linearGradient><linearGradient id="d" x1="256.278" y1="283.475" x2="256.278" y2="442.719" gradientUnits="userSpaceOnUse"><stop offset=".017" stop-color="#fff"/><stop offset=".099" stop-color="#fff" stop-opacity="0"/></linearGradient><radialGradient id="e" cx="0" cy="0" r="1" gradientUnits="userSpaceOnUse" gradientTransform="scale(141.278 159.244) rotate(90 .017 1.797)"><stop offset=".504" stop-color="#fff"/><stop offset=".595" stop-color="#fff" stop-opacity="0"/></radialGradient><radialGradient id="f" cx="0" cy="0" r="1" gradientUnits="userSpaceOnUse" gradientTransform="matrix(21.5 -20.00002 44.05798 47.36228 95.5 420.219)"><stop offset=".267" stop-color="#BDBDBD"/><stop offset="1" stop-color="#BDBDBD" stop-opacity="0"/></radialGradient></defs></svg>